# xmcd
#
# Track frame offsets:
#   150
#   22224
#   37684
#   60059
#   75250
#   86711
#   103585
#   118112
#   133664
#   147878
#   164566
#   181795
#   191054
#   204219
#   226199
#   245099
#   259959
#   279650
#   297180
#   321160
#
# Disc length: 4511 seconds
#
# Revision: 0
# Processed by: cddbd v1.5.2PL0 Copyright (c) Steve Scherf et al.
# Submitted via: uFREEDB ActiveX Control 1.5
#
DISCID=16119d14
DTITLE=dance - dance
DYEAR=1900
DGENRE=Dance
TTITLE0=faixa01
TTITLE1=faixa02
TTITLE2=faixa03
TTITLE3=faixa04
TTITLE4=faixa05
TTITLE5=faixa06
TTITLE6=faixa07
TTITLE7=faixa08
TTITLE8=faixa09
TTITLE9=faixa10
TTITLE10=faixa11
TTITLE11=faixa12
TTITLE12=faixa13
TTITLE13=faixa14
TTITLE14=faixa15
TTITLE15=faixa16
TTITLE16=faixa17
TTITLE17=faixa18
TTITLE18=faixa19
TTITLE19=faixa20
EXTD=
EXTT0=
EXTT1=
EXTT2=
EXTT3=
EXTT4=
EXTT5=
EXTT6=
EXTT7=
EXTT8=
EXTT9=
EXTT10=
EXTT11=
EXTT12=
EXTT13=
EXTT14=
EXTT15=
EXTT16=
EXTT17=
EXTT18=
EXTT19=
PLAYORDER=
